<svg width="133" height="56" viewBox="0 0 133 56" fill="none" xmlns="http://www.w3.org/2000/svg">
<path d="M12.1323 0.0310497C11.9087 0.0905018 11.7638 0.240154 11.7182 0.457458C11.7037 0.52921 11.6996 2.86626 11.7017 8.10616L11.7079 15.6503L11.7576 15.7569C11.8155 15.8881 11.9253 15.9906 12.0619 16.0419C12.1613 16.0808 12.3539 16.0808 19.534 16.0808C26.4989 16.0808 26.9192 16.0788 27.1635 16.0439C28.8695 15.802 29.8157 15.0004 30.1532 13.508C30.267 13.0017 30.2753 12.8868 30.2836 11.663C30.2939 10.4371 30.2836 10.2423 30.1946 9.83844C30.0082 9.01227 29.5548 8.36241 28.8467 7.9114L28.6997 7.8171L28.8633 7.69615C29.4472 7.26974 29.8612 6.65883 30.0496 5.94337C30.1532 5.55591 30.1697 5.3919 30.1801 4.53909C30.1946 3.46897 30.1594 2.98926 30.0289 2.47675C29.7929 1.54193 29.2712 0.865417 28.503 0.49231C27.9627 0.231955 27.2939 0.0782013 26.443 0.0207996C26.2297 0.00440025 23.8508 -0.00175095 19.1862 0.000299454C13.1427 0.000299454 12.2317 0.00440025 12.1323 0.0310497ZM25.4865 3.19631C26.207 3.28446 26.59 3.57352 26.7225 4.13318C26.7535 4.27053 26.7598 4.38533 26.7598 4.93885C26.7598 5.48826 26.7535 5.60511 26.7225 5.72606C26.6666 5.94131 26.5693 6.12172 26.4285 6.26317C26.2856 6.40872 26.1262 6.49483 25.8674 6.56863C25.4616 6.68548 25.6521 6.68138 20.2359 6.68138H15.2586L15.2566 5.0762C15.2545 4.19468 15.2566 3.44642 15.2586 3.41157C15.2648 3.31726 15.3166 3.23731 15.3891 3.20656C15.445 3.18196 16.2317 3.17786 20.3829 3.17581C23.6459 3.17581 25.3705 3.18196 25.4865 3.19631ZM25.5444 9.25008C25.8219 9.30133 26.1034 9.39563 26.2442 9.48583C26.4865 9.64164 26.6687 9.91019 26.7432 10.2218C26.7763 10.3612 26.7805 10.4781 26.7805 11.0992C26.7805 11.7204 26.7763 11.8372 26.7432 11.9766C26.6148 12.5158 26.2525 12.8028 25.5817 12.893C25.4678 12.9073 23.8363 12.9135 20.416 12.9135C15.9978 12.9135 15.4118 12.9094 15.3684 12.8827C15.2524 12.8069 15.2586 12.9053 15.2586 10.9947C15.2586 10.027 15.2586 9.22753 15.2586 9.21728C15.2586 9.20908 17.5299 9.20498 20.3063 9.20908C24.9937 9.21318 25.3664 9.21728 25.5444 9.25008Z" fill="#64CCC5"/>
<path d="M8.93953e-05 18.272C8.93953e-05 24.7502 -0.00819225 24.3381 0.134666 24.8957C0.617071 26.792 2.25684 28.1778 4.22372 28.35C4.41006 28.3664 9.04571 28.3705 20.9216 28.3664C36.253 28.3582 37.3731 28.3562 37.5573 28.3234C37.8389 28.2742 38.224 28.1758 38.4269 28.102C39.1847 27.8293 39.8534 27.3742 40.3669 26.7818C40.9631 26.097 41.3317 25.2914 41.4621 24.3812C41.4994 24.129 41.5014 23.8584 41.5014 18.2741V12.4315H40.87H40.2385L40.2344 18.0998C40.2323 21.218 40.2261 23.883 40.2199 24.0245C40.1971 24.5698 39.9963 25.1458 39.6464 25.6645C39.4559 25.9494 39.0439 26.3492 38.7374 26.5522C38.2695 26.8597 37.7664 27.0401 37.2219 27.0975C36.9403 27.1282 4.55292 27.1282 4.26927 27.0995C3.53635 27.0196 2.85311 26.7059 2.31481 26.2016C1.80135 25.7157 1.49493 25.1766 1.31894 24.4447L1.27546 24.2602L1.26925 18.3397L1.26304 12.4212H0.631564H8.93953e-05V18.272Z" fill="#64CCC5"/>
<path d="M8.67931 15.3877L8.68552 17.7206L8.73314 17.8641C9.01057 18.6821 9.79319 19.2438 10.934 19.4468C11.1141 19.4796 11.8222 19.4816 20.7042 19.4878C27.4683 19.4939 30.3627 19.4898 30.5594 19.4734C31.9776 19.3607 33.0253 18.5837 33.1267 17.5669C33.135 17.4705 33.1412 16.4189 33.1391 15.2298L33.1371 13.067L32.5843 13.0609L32.0294 13.0568V15.2852V17.5156L31.9714 17.6386C31.7996 17.9974 31.2737 18.2844 30.636 18.3664C30.518 18.3807 27.5656 18.3869 20.7871 18.3807C11.7311 18.3746 11.0996 18.3725 10.9671 18.3397C10.5282 18.2311 10.2425 18.0917 10.0313 17.8846C9.94847 17.8047 9.86151 17.696 9.83253 17.6386L9.78284 17.5361L9.77662 15.2954L9.77248 13.0568H9.22382H8.6731L8.67931 15.3877Z" fill="#64CCC5"/>
<path d="M2.67092 17.7658C2.67092 22.4604 2.66678 22.2328 2.78479 22.6387C2.94007 23.1697 3.21336 23.633 3.61916 24.0512C4.23615 24.6847 5.02083 25.0824 6.02498 25.2689C6.21339 25.3038 6.90076 25.3058 20.6007 25.312C31.1204 25.3161 35.0418 25.312 35.2136 25.2956C36.05 25.2115 36.8927 24.8774 37.5159 24.3792C37.6029 24.3095 37.7664 24.1578 37.8782 24.041C38.4393 23.4629 38.7519 22.7945 38.8203 22.0319C38.8327 21.8864 38.841 20.2504 38.841 17.6223V13.4464H38.2095H37.578L37.5718 17.7351C37.5656 21.7798 37.5635 22.034 37.5283 22.1795C37.3689 22.8417 36.8989 23.3911 36.195 23.7376C35.8679 23.8975 35.5387 23.9938 35.1349 24.0451C35.0086 24.0615 30.8802 24.0656 20.6421 24.0615L6.32519 24.0553L6.10158 24.0082C4.95872 23.7683 4.1202 23.0242 3.95664 22.1098C3.94008 22.0258 3.93387 20.6113 3.93387 17.7166V13.4464H3.30239H2.67092V17.7658Z" fill="#64CCC5"/>
<path d="M5.45019 17.2533L5.4564 20.1807L5.50402 20.3345C5.82493 21.3738 6.92639 22.1365 8.36739 22.3128C8.59514 22.3394 9.98231 22.3435 20.7422 22.3435C29.1212 22.3435 32.9224 22.3374 33.0612 22.321C33.85 22.2369 34.6078 21.9499 35.1274 21.5399C35.5808 21.1852 35.8645 20.7752 35.9991 20.2832L36.057 20.0782V17.2082V14.3381H35.4256H34.7941L34.79 17.0749C34.7879 18.5796 34.7817 19.8589 34.7755 19.9183C34.7465 20.2258 34.3842 20.601 33.9059 20.8162C33.6988 20.9085 33.4048 20.9987 33.1585 21.0438C32.9576 21.0807 32.5601 21.0827 20.7257 21.0827H8.4999L8.28251 21.0356C7.5413 20.8736 6.99057 20.5415 6.78767 20.1356L6.71935 19.9962L6.70899 17.1672L6.69864 14.3381L6.07131 14.332L5.44604 14.3279L5.45019 17.2533Z" fill="#64CCC5"/>
<path d="M0.448672 38.4011C0.3574 38.4168 0.242318 38.464 0.194698 38.5072C-0.0116555 38.6918 0.000249472 38.295 0.000249472 45.466C0.000249472 51.741 0.00421781 52.1458 0.0716796 52.2754C0.107395 52.354 0.198666 52.4444 0.278033 52.4837C0.408988 52.5465 0.778044 52.5505 7.00437 52.5387C13.5363 52.5269 13.5958 52.5269 13.949 52.4444C15.0323 52.1968 15.695 51.6742 16.0522 50.7941C16.1038 50.6683 16.1871 50.3815 16.2347 50.1536C16.3181 49.7764 16.326 49.6428 16.326 48.5229C16.326 47.3913 16.3181 47.2813 16.2387 46.9905C16.0601 46.3422 15.7228 45.8314 15.2466 45.4817L14.9728 45.2773L15.3577 44.8962C15.6792 44.574 15.7704 44.4601 15.9054 44.1811C16.1911 43.5799 16.2109 43.4542 16.2069 42.1182C16.2069 40.9748 16.203 40.9276 16.1038 40.5622C15.822 39.5288 15.2585 38.9394 14.2625 38.629C13.4728 38.3814 13.7347 38.3893 6.86548 38.3814C3.42889 38.3775 0.539944 38.3854 0.448672 38.4011ZM12.4013 41.2537C12.8021 41.3559 13.0839 41.6035 13.1751 41.9414C13.2347 42.1575 13.2307 43.3166 13.1672 43.521C13.0918 43.7764 12.7823 44.0671 12.4807 44.1614C12.2505 44.2361 12.064 44.24 7.69089 44.2518L3.13524 44.2597V42.7744C3.13524 41.6703 3.14714 41.2773 3.18286 41.242C3.21857 41.2066 4.27812 41.1948 7.69883 41.1948C11.5719 41.1948 12.1989 41.2027 12.4013 41.2537ZM12.2942 46.5583C12.7545 46.6683 12.9767 46.8333 13.1434 47.187C13.2228 47.3638 13.2347 47.4542 13.2466 48.0514C13.2664 48.9041 13.2109 49.1398 12.941 49.407C12.81 49.5367 12.691 49.6074 12.5204 49.6624C12.2902 49.7371 12.1116 49.741 7.78216 49.7528C3.61541 49.7607 3.2781 49.7567 3.21064 49.6978C3.13921 49.6349 3.13524 49.5406 3.13524 48.0632V46.4994H7.59168C11.3854 46.4994 12.0799 46.5072 12.2942 46.5583Z" fill="#64CCC5"/>
<path d="M23.5721 38.4047C22.8895 38.4401 22.1315 38.554 21.5998 38.7033C21.1395 38.833 20.441 39.1788 20.1196 39.4381C19.3418 40.0668 18.8656 41.0334 18.6831 42.3536C18.6434 42.6523 18.6315 43.4146 18.6315 45.5167C18.6315 48.4519 18.6394 48.6209 18.8378 49.3871C19.2783 51.1238 20.3656 52.0669 22.2903 52.393C23.1633 52.5423 23.7149 52.558 27.8579 52.5384C31.9889 52.5227 32.0087 52.5227 32.8778 52.3498C34.7548 51.9765 35.7707 50.9902 36.1477 49.171C36.3144 48.3773 36.3303 48.0433 36.3303 45.4185C36.3263 43.281 36.3184 42.8291 36.2588 42.4087C35.9612 40.2122 35.0445 39.1238 33.0881 38.6405C32.1159 38.4047 31.981 38.3968 27.8975 38.3851C25.8578 38.3772 23.9094 38.389 23.5721 38.4047ZM31.6278 41.2849C32.0484 41.3792 32.4611 41.5874 32.6595 41.8153C32.8659 42.0472 32.9532 42.2122 33.0524 42.5698C33.1953 43.0766 33.223 43.6817 33.2032 45.8114C33.1873 47.6425 33.1794 47.8468 33.108 48.169C32.9175 49.0059 32.5286 49.4146 31.727 49.6268C31.4651 49.6975 31.2389 49.7014 27.4809 49.7014C23.7943 49.7014 23.4927 49.6975 23.2347 49.6307C22.5046 49.446 22.1236 49.116 21.9133 48.4833C21.7665 48.0472 21.7466 47.7014 21.7466 45.4421C21.7426 43.6503 21.7546 43.1945 21.8061 42.9155C22.0006 41.8153 22.4887 41.3752 23.6594 41.2377C23.8181 41.2181 25.6118 41.2063 27.6396 41.2102C30.9055 41.2181 31.3659 41.2259 31.6278 41.2849Z" fill="#64CCC5"/>
<path d="M39.1404 38.4086C39.0729 38.4283 38.9777 38.4911 38.934 38.5462C38.8507 38.6522 38.8507 38.664 38.8507 43.2377C38.8507 48.5501 38.8586 48.7112 39.188 49.7407C39.7079 51.3596 40.8349 52.173 42.9381 52.4598C43.4302 52.5227 43.8151 52.5305 47.4818 52.5305C51.7438 52.5305 51.843 52.5266 52.7597 52.3341C53.7002 52.1415 54.355 51.8154 54.9026 51.2731C55.4106 50.7663 55.6963 50.2476 55.8947 49.4617C56.1289 48.558 56.1249 48.6209 56.1408 43.4735C56.1527 40.3536 56.1447 38.6994 56.1169 38.6326C56.0931 38.5737 56.0296 38.4951 55.9662 38.4558C55.8709 38.3929 55.736 38.3851 54.7241 38.3733C53.4542 38.3576 53.2994 38.3693 53.1447 38.5029L53.0375 38.5933L53.0137 43.2259C52.9939 47.3399 52.9859 47.8861 52.9264 48.1454C52.7359 48.9902 52.3034 49.4067 51.4303 49.5914C51.1208 49.6582 50.8113 49.6621 47.5017 49.6621C44.1762 49.6621 43.8865 49.6582 43.573 49.5914C42.7317 49.4107 42.323 49.0374 42.0968 48.2397C42.0055 47.9332 42.0055 47.9293 41.9857 43.2967C41.9659 38.3654 41.9738 38.5462 41.7754 38.4361C41.6682 38.3733 39.3388 38.3497 39.1404 38.4086Z" fill="#64CCC5"/>
<path d="M63.6127 38.4048C62.9301 38.4401 62.1721 38.5541 61.6404 38.7034C61.1801 38.8331 60.4816 39.1789 60.1602 39.4382C59.3824 40.0669 58.9062 41.0335 58.7237 42.3537C58.6483 42.9156 58.6483 47.6858 58.7237 48.2477C59.0054 50.3184 59.9816 51.4815 61.811 51.9451C62.6801 52.1612 62.8507 52.173 65.9937 52.1966L68.9104 52.2163L70.0612 53.8783C70.6961 54.7899 71.2715 55.5954 71.339 55.6622C71.5136 55.8351 71.6525 55.8469 73.2478 55.8391L74.6129 55.8312L74.6883 55.7369C74.7756 55.6347 74.7835 55.4933 74.7161 55.3675C74.6923 55.3204 74.1684 54.5895 73.5494 53.7447C72.9303 52.896 72.4184 52.1848 72.4144 52.1573C72.4065 52.1259 72.5573 52.0787 72.843 52.0198C74.2756 51.729 75.1962 51.1239 75.7359 50.1101C76.097 49.4343 76.2915 48.5502 76.359 47.285C76.4185 46.1573 76.3788 43.0178 76.2955 42.3891C76.0137 40.2319 75.0732 39.1238 73.1287 38.6445C72.1565 38.4048 72.0216 38.3969 67.9381 38.3851C65.8984 38.3773 63.95 38.3891 63.6127 38.4048ZM71.6684 41.285C72.089 41.3793 72.5017 41.5875 72.7002 41.8154C72.9065 42.0472 72.9938 42.2123 73.093 42.5698C73.2359 43.0689 73.2637 43.6858 73.2438 45.6347C73.2279 47.285 73.22 47.4972 73.1486 47.8194C72.9581 48.6642 72.5811 49.0689 71.8073 49.2693C71.3231 49.3911 70.5334 49.4147 67.085 49.395C64.8825 49.3832 63.6365 49.3636 63.4936 49.3361C62.4579 49.1318 62.0253 48.6995 61.8467 47.6858C61.7555 47.1868 61.7555 43.4146 61.8467 42.9156C62.0412 41.8193 62.5293 41.3753 63.7 41.2378C63.8587 41.2182 65.6524 41.2064 67.6802 41.2103C70.9461 41.2182 71.4065 41.226 71.6684 41.285Z" fill="#64CCC5"/>
<path d="M79.2082 38.4047C79.1328 38.4243 79.0296 38.4833 78.982 38.5422L78.8907 38.6444V43.2338C78.8907 47.9568 78.8987 48.3065 79.0534 49.0727C79.4701 51.1474 80.6249 52.1415 82.9781 52.4598C83.4702 52.5227 83.8551 52.5305 87.5219 52.5305C91.7839 52.5305 91.8831 52.5266 92.7998 52.3341C93.7403 52.1415 94.395 51.8154 94.9427 51.2731C95.4506 50.7663 95.7363 50.2476 95.9348 49.4617C96.1689 48.5541 96.1649 48.6248 96.1808 43.4696C96.1927 40.3615 96.1848 38.6994 96.157 38.6287C96.1332 38.5737 96.0697 38.4951 96.0062 38.4558C95.9109 38.3929 95.776 38.3851 94.7641 38.3733C93.4942 38.3576 93.3395 38.3693 93.1847 38.5029L93.0776 38.5933L93.0537 43.2259C93.0339 47.3399 93.026 47.8861 92.9664 48.1454C92.776 48.9902 92.3434 49.4067 91.4704 49.5914C91.1608 49.6582 90.8513 49.6621 87.5417 49.6621C84.2163 49.6621 83.9266 49.6582 83.6131 49.5914C82.7718 49.4107 82.363 49.0374 82.1368 48.2397C82.0456 47.9332 82.0456 47.9293 82.0257 43.2967C82.0059 38.3654 82.0138 38.5462 81.8154 38.4361C81.7162 38.3772 79.4463 38.3536 79.2082 38.4047Z" fill="#64CCC5"/>
<path d="M103.673 38.4046C102.55 38.4636 101.658 38.6601 100.935 39.0137C99.7448 39.5992 99.1098 40.55 98.8281 42.1807C98.7725 42.4872 98.7606 42.9823 98.7448 45.163C98.7329 46.9037 98.7408 47.9253 98.7725 48.22C99.0503 51.0845 100.356 52.2868 103.427 52.5147C103.792 52.5383 105.709 52.5501 108.82 52.5423L113.654 52.5305L113.761 52.4204L113.872 52.3144L113.884 51.2024C113.892 50.2083 113.888 50.0786 113.824 49.9568C113.777 49.8625 113.709 49.8035 113.614 49.7721C113.511 49.7367 112.285 49.7249 108.674 49.721C105.789 49.721 103.761 49.7053 103.594 49.6817C102.273 49.497 101.788 48.7937 101.788 47.0491V46.6562H107.582C114.015 46.6562 113.602 46.6719 113.717 46.3968C113.765 46.2829 113.773 46.0903 113.765 45.3399C113.753 44.4793 113.749 44.4165 113.67 44.3104C113.626 44.2514 113.543 44.1886 113.491 44.1768C113.44 44.1611 110.781 44.1493 107.586 44.1453L101.777 44.1414L101.8 43.5992C101.824 43.0255 101.908 42.5383 102.027 42.2632C102.3 41.6463 102.836 41.332 103.773 41.2337C104.031 41.2102 105.88 41.1944 108.876 41.1944C112.301 41.1944 113.598 41.1827 113.67 41.1512C113.872 41.0569 113.892 40.943 113.892 39.8035C113.892 38.6758 113.872 38.5422 113.686 38.4361C113.61 38.3929 112.733 38.385 108.931 38.3811C106.368 38.3771 104.003 38.3889 103.673 38.4046Z" fill="#64CCC5"/>
<path d="M115.649 38.4085C115.582 38.4281 115.487 38.491 115.439 38.5499C115.36 38.6521 115.356 38.6874 115.368 39.8662C115.379 41.0647 115.379 41.0764 115.471 41.1629L115.562 41.2533L118.891 41.2651L122.225 41.2729V46.7582C122.225 52.719 122.213 52.4007 122.443 52.5028C122.586 52.5657 124.995 52.5696 125.138 52.5068C125.372 52.4007 125.36 52.7072 125.36 46.7386V41.2729H128.634C132.289 41.2729 132.102 41.2886 132.185 41.0057C132.213 40.9114 132.225 40.4753 132.217 39.7326C132.205 38.6442 132.201 38.601 132.122 38.5224C132.074 38.4753 131.967 38.4242 131.884 38.4045C131.677 38.3534 115.816 38.3613 115.649 38.4085Z" fill="#64CCC5"/>
</svg>
