<svg width="182" height="29" viewBox="0 0 182 29" fill="none" xmlns="http://www.w3.org/2000/svg">
<path d="M11.5587 1.01603C11.3457 1.07267 11.2076 1.21525 11.1642 1.42229C11.1504 1.49065 11.1465 3.71722 11.1484 8.70943L11.1543 15.897L11.2017 15.9985C11.2569 16.1235 11.3615 16.2212 11.4916 16.27C11.5863 16.3071 11.7698 16.3071 18.6106 16.3071C25.2462 16.3071 25.6466 16.3052 25.8794 16.272C27.5047 16.0415 28.4062 15.2778 28.7277 13.8559C28.8362 13.3735 28.8441 13.2641 28.852 12.0981C28.8619 10.9301 28.852 10.7446 28.7672 10.3598C28.5896 9.57272 28.1577 8.95357 27.483 8.52388L27.343 8.43404L27.4988 8.31881C28.0551 7.91255 28.4496 7.33052 28.6291 6.64888C28.7277 6.27973 28.7435 6.12348 28.7534 5.31098C28.7672 4.29144 28.7336 3.83441 28.6094 3.34612C28.3845 2.45549 27.8874 1.81096 27.1556 1.45549C26.6408 1.20744 26.0036 1.06096 25.1929 1.00627C24.9898 0.990643 22.7233 0.984783 18.2792 0.986736C12.5213 0.986736 11.6534 0.990643 11.5587 1.01603ZM24.2816 4.03167C24.9681 4.11566 25.333 4.39105 25.4592 4.92426C25.4888 5.05512 25.4947 5.16449 25.4947 5.69184C25.4947 6.21528 25.4888 6.32661 25.4592 6.44184C25.406 6.64692 25.3133 6.8188 25.1791 6.95356C25.043 7.09224 24.8911 7.17427 24.6446 7.24458C24.2579 7.35591 24.4394 7.352 19.2792 7.352H14.5373L14.5353 5.8227C14.5333 4.98285 14.5353 4.26996 14.5373 4.23675C14.5432 4.14691 14.5925 4.07074 14.6615 4.04144C14.7148 4.018 15.4643 4.0141 19.4193 4.01214C22.528 4.01214 24.1712 4.018 24.2816 4.03167ZM24.3368 9.79928C24.6012 9.84811 24.8694 9.93795 25.0036 10.0239C25.2344 10.1723 25.4079 10.4282 25.4789 10.7251C25.5105 10.8579 25.5145 10.9692 25.5145 11.561C25.5145 12.1528 25.5105 12.2641 25.4789 12.397C25.3566 12.9106 25.0115 13.1841 24.3723 13.27C24.2639 13.2837 22.7095 13.2895 19.4509 13.2895C15.2415 13.2895 14.6832 13.2856 14.6418 13.2602C14.5313 13.188 14.5373 13.2817 14.5373 11.4614C14.5373 10.5395 14.5373 9.7778 14.5373 9.76803C14.5373 9.76022 16.7011 9.75631 19.3463 9.76022C23.8121 9.76413 24.1672 9.76803 24.3368 9.79928Z" fill="#00A095"/>
<path d="M8.51697e-05 18.3949C8.51697e-05 24.5668 -0.00780501 24.1742 0.1283 24.7055C0.587903 26.5121 2.15016 27.8324 4.02407 27.9965C4.2016 28.0121 8.61812 28.016 19.9326 28.0121C34.5393 28.0043 35.6065 28.0023 35.782 27.9711C36.0503 27.9242 36.4172 27.8305 36.6105 27.7602C37.3324 27.5004 37.9696 27.0668 38.4587 26.5023C39.0268 25.85 39.378 25.0824 39.5022 24.2152C39.5377 23.975 39.5397 23.7172 39.5397 18.3968V12.8304H38.9381H38.3364L38.3325 18.2308C38.3305 21.2015 38.3246 23.7406 38.3187 23.8754C38.297 24.3949 38.1057 24.9437 37.7723 25.4379C37.5908 25.7094 37.1983 26.0902 36.9064 26.2836C36.4606 26.5766 35.9812 26.7484 35.4625 26.8031C35.1942 26.8324 4.33771 26.8324 4.06747 26.8051C3.36919 26.7289 2.71825 26.4301 2.20539 25.9496C1.7162 25.4867 1.42426 24.973 1.25659 24.2758L1.21517 24.1L1.20925 18.4593L1.20334 12.8206H0.601711H8.51697e-05V18.3949Z" fill="#00A095"/>
<path d="M8.26898 15.6469L8.2749 17.8696L8.32027 18.0063C8.58459 18.7856 9.33021 19.3208 10.4171 19.5142C10.5887 19.5454 11.2633 19.5474 19.7255 19.5532C26.1698 19.5591 28.9274 19.5552 29.1148 19.5395C30.466 19.4321 31.4641 18.6919 31.5608 17.7231C31.5687 17.6313 31.5746 16.6294 31.5726 15.4966L31.5706 13.436L31.044 13.4301L30.5153 13.4262V15.5493V17.6743L30.4601 17.7915C30.2964 18.1333 29.7953 18.4067 29.1878 18.4849C29.0754 18.4985 26.2625 18.5044 19.8044 18.4985C11.1765 18.4927 10.5749 18.4907 10.4486 18.4595C10.0305 18.3559 9.75825 18.2231 9.55705 18.0259C9.47815 17.9497 9.3953 17.8462 9.36769 17.7915L9.32034 17.6938L9.31443 15.5591L9.31048 13.4262H8.78776H8.26306L8.26898 15.6469Z" fill="#00A095"/>
<path d="M2.54469 17.9123C2.54469 22.385 2.54075 22.1682 2.65318 22.5549C2.80113 23.0608 3.0615 23.5022 3.44812 23.9007C4.03594 24.5042 4.78353 24.8831 5.74021 25.0608C5.91971 25.094 6.5746 25.096 19.6269 25.1018C29.6494 25.1057 33.3854 25.1018 33.5491 25.0862C34.346 25.0061 35.1488 24.6878 35.7426 24.2132C35.8254 24.1467 35.9812 24.0022 36.0878 23.8909C36.6223 23.3401 36.9202 22.7034 36.9853 21.9768C36.9971 21.8381 37.005 20.2795 37.005 17.7756V13.7971H36.4034H35.8017L35.7958 17.883C35.7899 21.7366 35.7879 21.9788 35.7544 22.1174C35.6025 22.7483 35.1548 23.2717 34.4841 23.6018C34.1724 23.7542 33.8588 23.846 33.4741 23.8948C33.3538 23.9104 29.4206 23.9143 19.6664 23.9104L6.02623 23.9046L5.8132 23.8596C4.72435 23.6311 3.92547 22.9221 3.76964 22.051C3.75386 21.971 3.74795 20.6233 3.74795 17.8655V13.7971H3.14632H2.54469V17.9123Z" fill="#00A095"/>
<path d="M5.19242 17.4242L5.19834 20.2132L5.24371 20.3597C5.54945 21.35 6.59884 22.0765 7.97173 22.2445C8.18871 22.2699 9.51032 22.2738 19.7616 22.2738C27.7445 22.2738 31.3661 22.2679 31.4982 22.2523C32.2498 22.1722 32.9717 21.8988 33.4668 21.5082C33.8988 21.1703 34.1691 20.7796 34.2973 20.3109L34.3525 20.1156V17.3812V14.6468H33.7509H33.1493L33.1453 17.2542C33.1433 18.6878 33.1374 19.9066 33.1315 19.9632C33.1039 20.2562 32.7587 20.6136 32.303 20.8187C32.1058 20.9066 31.8257 20.9925 31.591 21.0355C31.3996 21.0707 31.0209 21.0726 19.7458 21.0726H8.09798L7.89086 21.0277C7.18469 20.8734 6.65999 20.557 6.46668 20.1703L6.40159 20.0374L6.39173 17.3421L6.38186 14.6468L5.78418 14.6409L5.18848 14.637L5.19242 17.4242Z" fill="#00A095"/>
<path d="M49.9883 5.79645C49.8971 5.81217 49.782 5.85932 49.7344 5.90254C49.528 6.08722 49.5399 5.69036 49.5399 12.8613C49.5399 19.1364 49.5439 19.5411 49.6114 19.6708C49.6471 19.7494 49.7383 19.8398 49.8177 19.879C49.9487 19.9419 50.3177 19.9458 56.544 19.9341C63.0759 19.9223 63.1355 19.9223 63.4886 19.8398C64.572 19.5922 65.2347 19.0696 65.5919 18.1894C65.6434 18.0637 65.7268 17.7769 65.7744 17.549C65.8577 17.1718 65.8657 17.0382 65.8657 15.9183C65.8657 14.7867 65.8577 14.6767 65.7784 14.3859C65.5998 13.7376 65.2625 13.2267 64.7863 12.877L64.5125 12.6727L64.8974 12.2916C65.2188 11.9694 65.3101 11.8554 65.445 11.5764C65.7307 10.9753 65.7506 10.8495 65.7466 9.51357C65.7466 8.37014 65.7427 8.32299 65.6434 7.95757C65.3617 6.92416 64.7982 6.33477 63.8021 6.02435C63.0124 5.77681 63.2743 5.78467 56.4051 5.77681C52.9686 5.77288 50.0796 5.78074 49.9883 5.79645ZM61.941 8.64912C62.3418 8.75128 62.6235 8.99883 62.7148 9.33675C62.7743 9.55286 62.7704 10.712 62.7069 10.9163C62.6315 11.1717 62.3219 11.4625 62.0203 11.5568C61.7902 11.6315 61.6037 11.6354 57.2306 11.6472L52.6749 11.655V10.1698C52.6749 9.06563 52.6868 8.6727 52.7225 8.63733C52.7582 8.60197 53.8178 8.59018 57.2385 8.59018C61.1116 8.59018 61.7386 8.59804 61.941 8.64912ZM61.8338 13.9537C62.2942 14.0637 62.5164 14.2287 62.6831 14.5824C62.7624 14.7592 62.7743 14.8495 62.7862 15.4468C62.8061 16.2995 62.7505 16.5352 62.4807 16.8024C62.3497 16.9321 62.2307 17.0028 62.06 17.0578C61.8299 17.1325 61.6513 17.1364 57.3218 17.1482C53.1551 17.156 52.8178 17.1521 52.7503 17.0932C52.6789 17.0303 52.6749 16.936 52.6749 15.4586V13.8947H57.1314C60.9251 13.8947 61.6195 13.9026 61.8338 13.9537Z" fill="#00A095"/>
<path d="M73.1117 5.80013C72.4292 5.83549 71.6712 5.94944 71.1395 6.09876C70.6791 6.22842 69.9807 6.5742 69.6593 6.83354C68.8815 7.46222 68.4053 8.42883 68.2227 9.74907C68.183 10.0477 68.1711 10.81 68.1711 12.9122C68.1711 15.8473 68.1791 16.0163 68.3775 16.7825C68.818 18.5193 69.9053 19.4623 71.83 19.7884C72.703 19.9377 73.2546 19.9535 77.3975 19.9338C81.5286 19.9181 81.5484 19.9181 82.4175 19.7452C84.2945 19.3719 85.3104 18.3857 85.6874 16.5664C85.8541 15.7727 85.8699 15.4387 85.8699 12.8139C85.866 10.6764 85.858 10.2245 85.7985 9.80408C85.5009 7.60761 84.5842 6.51919 82.6278 6.03589C81.6556 5.80013 81.5206 5.79227 77.4372 5.78049C75.3975 5.77263 73.449 5.78441 73.1117 5.80013ZM81.1674 8.6803C81.5881 8.77461 82.0008 8.98286 82.1992 9.21076C82.4056 9.44259 82.4929 9.60762 82.5921 9.96518C82.7349 10.4721 82.7627 11.0772 82.7429 13.2069C82.727 15.0379 82.7191 15.2422 82.6476 15.5644C82.4572 16.4014 82.0683 16.81 81.2667 17.0222C81.0047 17.0929 80.7786 17.0969 77.0205 17.0969C73.334 17.0969 73.0324 17.0929 72.7744 17.0261C72.0442 16.8415 71.6633 16.5114 71.453 15.8788C71.3061 15.4426 71.2863 15.0968 71.2863 12.8375C71.2823 11.0457 71.2942 10.5899 71.3458 10.311C71.5403 9.21076 72.0284 8.77068 73.199 8.63315C73.3578 8.61351 75.1514 8.60172 77.1793 8.60565C80.4452 8.61351 80.9055 8.62136 81.1674 8.6803Z" fill="#00A095"/>
<path d="M88.6801 5.80406C88.6126 5.82371 88.5174 5.88658 88.4737 5.94159C88.3904 6.04768 88.3904 6.05947 88.3904 10.6332C88.3904 15.9456 88.3983 16.1067 88.7277 17.1361C89.2475 18.755 90.3745 19.5684 92.4778 19.8552C92.9698 19.9181 93.3548 19.9259 97.0215 19.9259C101.284 19.9259 101.383 19.922 102.299 19.7295C103.24 19.5369 103.895 19.2108 104.442 18.6686C104.95 18.1617 105.236 17.643 105.434 16.8572C105.669 15.9534 105.665 16.0163 105.68 10.8689C105.692 7.74907 105.684 6.09483 105.657 6.02803C105.633 5.96909 105.569 5.89051 105.506 5.85122C105.411 5.78835 105.276 5.78049 104.264 5.7687C102.994 5.75298 102.839 5.76477 102.684 5.89837L102.577 5.98874L102.553 10.6214C102.534 14.7354 102.526 15.2815 102.466 15.5409C102.276 16.3857 101.843 16.8022 100.97 16.9868C100.66 17.0536 100.351 17.0576 97.0414 17.0576C93.7159 17.0576 93.4262 17.0536 93.1127 16.9868C92.2714 16.8061 91.8627 16.4328 91.6365 15.6352C91.5452 15.3287 91.5452 15.3247 91.5254 10.6921C91.5055 5.76084 91.5135 5.94159 91.315 5.83157C91.2079 5.7687 88.8785 5.74512 88.6801 5.80406Z" fill="#00A095"/>
<path d="M113.152 5.80038C112.47 5.83574 111.712 5.94969 111.18 6.099C110.72 6.22867 110.021 6.57445 109.7 6.83378C108.922 7.46247 108.446 8.42908 108.263 9.74932C108.188 10.3112 108.188 15.0814 108.263 15.6433C108.545 17.714 109.521 18.8771 111.351 19.3407C112.22 19.5568 112.39 19.5686 115.533 19.5922L118.45 19.6118L119.601 21.2739C120.236 22.1855 120.811 22.991 120.879 23.0578C121.053 23.2307 121.192 23.2425 122.787 23.2347L124.153 23.2268L124.228 23.1325C124.315 23.0303 124.323 22.8889 124.256 22.7631C124.232 22.716 123.708 21.9851 123.089 21.1403C122.47 20.2916 121.958 19.5804 121.954 19.5529C121.946 19.5215 122.097 19.4743 122.383 19.4154C123.815 19.1246 124.736 18.5195 125.276 17.5057C125.637 16.8299 125.831 15.9458 125.899 14.6806C125.958 13.5529 125.918 10.4134 125.835 9.78468C125.553 7.6275 124.613 6.51944 122.668 6.04007C121.696 5.80038 121.561 5.79252 117.478 5.78073C115.438 5.77287 113.49 5.78466 113.152 5.80038ZM121.208 8.68055C121.629 8.77485 122.041 8.98311 122.24 9.21101C122.446 9.44283 122.533 9.60787 122.633 9.96543C122.776 10.4645 122.803 11.0814 122.783 13.0303C122.768 14.6806 122.76 14.8928 122.688 15.215C122.498 16.0598 122.121 16.4645 121.347 16.6649C120.863 16.7867 120.073 16.8103 116.625 16.7906C114.422 16.7788 113.176 16.7592 113.033 16.7317C111.998 16.5274 111.565 16.0951 111.386 15.0814C111.295 14.5824 111.295 10.8102 111.386 10.3112C111.581 9.21494 112.069 8.77093 113.24 8.6334C113.398 8.61375 115.192 8.60197 117.22 8.6059C120.486 8.61375 120.946 8.62161 121.208 8.68055Z" fill="#00A095"/>
<path d="M128.748 5.80013C128.672 5.81978 128.569 5.87872 128.522 5.93766L128.43 6.03982V10.6292C128.43 15.3523 128.438 15.702 128.593 16.4682C129.01 18.5428 130.165 19.5369 132.518 19.8552C133.01 19.9181 133.395 19.9259 137.062 19.9259C141.324 19.9259 141.423 19.922 142.339 19.7295C143.28 19.5369 143.935 19.2108 144.482 18.6686C144.99 18.1617 145.276 17.643 145.474 16.8572C145.709 15.9495 145.705 16.0202 145.72 10.865C145.732 7.75692 145.724 6.09483 145.697 6.02411C145.673 5.96909 145.609 5.89051 145.546 5.85122C145.451 5.78835 145.316 5.78049 144.304 5.7687C143.034 5.75298 142.879 5.76477 142.724 5.89837L142.617 5.98874L142.593 10.6214C142.574 14.7354 142.566 15.2815 142.506 15.5409C142.316 16.3857 141.883 16.8022 141.01 16.9868C140.701 17.0536 140.391 17.0576 137.081 17.0576C133.756 17.0576 133.466 17.0536 133.153 16.9868C132.311 16.8061 131.903 16.4328 131.677 15.6352C131.585 15.3287 131.585 15.3247 131.565 10.6921C131.546 5.76084 131.554 5.94159 131.355 5.83157C131.256 5.77263 128.986 5.74905 128.748 5.80013Z" fill="#00A095"/>
<path d="M153.213 5.80025C152.09 5.85919 151.197 6.05565 150.475 6.40929C149.284 6.99475 148.65 7.94564 148.368 9.5763C148.312 9.88279 148.3 10.3779 148.284 12.5586C148.273 14.2993 148.28 15.3209 148.312 15.6156C148.59 18.4801 149.896 19.6824 152.967 19.9103C153.332 19.9339 155.249 19.9457 158.36 19.9379L163.193 19.9261L163.301 19.816L163.412 19.71L163.424 18.598C163.432 17.6039 163.428 17.4742 163.364 17.3524C163.316 17.2581 163.249 17.1991 163.154 17.1677C163.051 17.1323 161.824 17.1205 158.213 17.1166C155.328 17.1166 153.3 17.1009 153.134 17.0773C151.812 16.8926 151.328 16.1893 151.328 14.4447V14.0518H157.122C163.555 14.0518 163.142 14.0675 163.257 13.7924C163.305 13.6785 163.313 13.4859 163.305 12.7355C163.293 11.8749 163.289 11.8121 163.209 11.706C163.166 11.647 163.082 11.5842 163.031 11.5724C162.979 11.5567 160.32 11.5449 157.126 11.5409L151.316 11.537L151.34 10.9948C151.364 10.4211 151.447 9.93387 151.566 9.65882C151.84 9.04192 152.376 8.72757 153.312 8.62934C153.57 8.60576 155.42 8.59005 158.416 8.59005C161.84 8.59005 163.138 8.57826 163.209 8.54683C163.412 8.45252 163.432 8.33857 163.432 7.19908C163.432 6.07137 163.412 5.93777 163.225 5.83168C163.15 5.78846 162.273 5.7806 158.471 5.77667C155.908 5.77274 153.542 5.78453 153.213 5.80025Z" fill="#00A095"/>
<path d="M165.189 5.80404C165.122 5.82369 165.026 5.88656 164.979 5.9455C164.899 6.04766 164.895 6.08302 164.907 7.26181C164.919 8.46025 164.919 8.47203 165.01 8.55848L165.102 8.64885L168.431 8.66064L171.765 8.6685V14.1538C171.765 20.1145 171.753 19.7963 171.983 19.8984C172.126 19.9613 174.534 19.9652 174.677 19.9024C174.911 19.7963 174.9 20.1027 174.9 14.1341V8.6685H178.173C181.828 8.6685 181.642 8.68422 181.725 8.40131C181.753 8.307 181.765 7.87085 181.757 7.12821C181.745 6.0398 181.741 5.99658 181.662 5.91799C181.614 5.87084 181.507 5.81976 181.423 5.80011C181.217 5.74903 165.356 5.75689 165.189 5.80404Z" fill="#00A095"/>
</svg>
