<svg width="42" height="29" viewBox="0 0 42 29" fill="none" xmlns="http://www.w3.org/2000/svg">
<path d="M12.6323 0.34709C12.4087 0.406542 12.2638 0.556194 12.2183 0.773499C12.2038 0.84525 12.1996 3.1823 12.2017 8.4222L12.2079 15.9663L12.2576 16.0729C12.3156 16.2041 12.4253 16.3066 12.562 16.3579C12.6613 16.3969 12.8539 16.3969 20.0341 16.3969C26.9989 16.3969 27.4192 16.3948 27.6635 16.3599C29.3695 16.118 30.3157 15.3165 30.6532 13.8241C30.7671 13.3177 30.7753 13.2029 30.7836 11.979C30.794 10.7531 30.7836 10.5583 30.6946 10.1545C30.5083 9.32831 30.0548 8.67845 29.3468 8.22744L29.1998 8.13314L29.3633 8.01219C29.9472 7.58578 30.3613 6.97487 30.5497 6.25941C30.6532 5.87195 30.6698 5.70794 30.6801 4.85513C30.6946 3.78501 30.6594 3.3053 30.529 2.79279C30.2929 1.85797 29.7712 1.18146 29.0031 0.80835C28.4627 0.547995 27.794 0.394241 26.943 0.33684C26.7298 0.32044 24.3509 0.314289 19.6862 0.316339C13.6427 0.316339 12.7317 0.32044 12.6323 0.34709ZM25.9865 3.51235C26.707 3.6005 27.09 3.88956 27.2225 4.44922C27.2536 4.58657 27.2598 4.70138 27.2598 5.25489C27.2598 5.8043 27.2536 5.92115 27.2225 6.0421C27.1666 6.25735 27.0693 6.43776 26.9285 6.57921C26.7857 6.72476 26.6262 6.81087 26.3674 6.88467C25.9616 7.00152 26.1521 6.99742 20.7359 6.99742H15.7587L15.7566 5.39224C15.7545 4.51072 15.7566 3.76246 15.7587 3.72761C15.7649 3.6333 15.8166 3.55335 15.8891 3.5226C15.945 3.498 16.7318 3.4939 20.8829 3.49185C24.1459 3.49185 25.8705 3.498 25.9865 3.51235ZM26.0445 9.56612C26.3219 9.61737 26.6035 9.71167 26.7443 9.80187C26.9865 9.95768 27.1687 10.2262 27.2432 10.5378C27.2764 10.6772 27.2805 10.7941 27.2805 11.4153C27.2805 12.0364 27.2764 12.1533 27.2432 12.2927C27.1149 12.8318 26.7525 13.1188 26.0817 13.209C25.9679 13.2234 24.3364 13.2295 20.9161 13.2295C16.4978 13.2295 15.9119 13.2254 15.8684 13.1988C15.7525 13.1229 15.7587 13.2213 15.7587 11.3107C15.7587 10.3431 15.7587 9.54357 15.7587 9.53332C15.7587 9.52512 18.0299 9.52102 20.8063 9.52512C25.4937 9.52922 25.8664 9.53332 26.0445 9.56612Z" fill="#00A095"/>
<path d="M0.500089 18.5881C0.500089 25.0662 0.491808 24.6541 0.634666 25.2117C1.11707 27.108 2.75684 28.4938 4.72372 28.6661C4.91006 28.6825 9.54571 28.6866 21.4216 28.6825C36.753 28.6743 37.8731 28.6722 38.0573 28.6394C38.3389 28.5902 38.724 28.4918 38.9269 28.418C39.6847 28.1453 40.3534 27.6902 40.8669 27.0978C41.4631 26.4131 41.8317 25.6074 41.9621 24.6972C41.9994 24.445 42.0014 24.1744 42.0014 18.5901V12.7475H41.37H40.7385L40.7344 18.4159C40.7323 21.534 40.7261 24.199 40.7199 24.3405C40.6971 24.8858 40.4963 25.4618 40.1464 25.9805C39.9559 26.2655 39.5439 26.6652 39.2374 26.8682C38.7695 27.1757 38.2664 27.3561 37.7219 27.4135C37.4403 27.4442 5.05292 27.4442 4.76927 27.4155C4.03635 27.3356 3.35311 27.0219 2.81481 26.5176C2.30135 26.0317 1.99493 25.4926 1.81894 24.7607L1.77546 24.5762L1.76925 18.6557L1.76304 12.7372H1.13156H0.500089V18.5881Z" fill="#00A095"/>
<path d="M9.17928 15.7038L9.18549 18.0367L9.23311 18.1802C9.51054 18.9982 10.2932 19.5599 11.434 19.7628C11.6141 19.7956 12.3222 19.7977 21.2042 19.8038C27.9682 19.81 30.8627 19.8059 31.0594 19.7895C32.4776 19.6767 33.5252 18.8998 33.6267 17.8829C33.635 17.7866 33.6412 16.7349 33.6391 15.5459L33.637 13.3831L33.0842 13.377L32.5294 13.3729V15.6013V17.8317L32.4714 17.9547C32.2995 18.3135 31.7737 18.6005 31.136 18.6825C31.018 18.6968 28.0656 18.703 21.287 18.6968C12.2311 18.6907 11.5996 18.6886 11.4671 18.6558C11.0282 18.5472 10.7424 18.4078 10.5313 18.2007C10.4484 18.1208 10.3615 18.0121 10.3325 17.9547L10.2828 17.8522L10.2766 15.6115L10.2725 13.3729H9.72379H9.17307L9.17928 15.7038Z" fill="#00A095"/>
<path d="M3.17095 18.0817C3.17095 22.7763 3.16681 22.5488 3.28482 22.9547C3.4401 23.4856 3.71339 23.9489 4.11919 24.3672C4.73618 25.0006 5.52086 25.3983 6.52501 25.5849C6.71342 25.6197 7.40079 25.6218 21.1007 25.6279C31.6204 25.632 35.5418 25.6279 35.7136 25.6115C36.5501 25.5275 37.3927 25.1933 38.0159 24.6952C38.1029 24.6255 38.2664 24.4738 38.3782 24.3569C38.9393 23.7788 39.252 23.1105 39.3203 22.3479C39.3327 22.2023 39.341 20.5664 39.341 17.9382V13.7623H38.7095H38.078L38.0718 18.051C38.0656 22.0957 38.0635 22.3499 38.0283 22.4955C37.8689 23.1576 37.3989 23.707 36.695 24.0535C36.3679 24.2134 36.0387 24.3098 35.635 24.361C35.5087 24.3774 31.3803 24.3815 21.1421 24.3774L6.82522 24.3713L6.60161 24.3241C5.45875 24.0843 4.62023 23.3401 4.45667 22.4258C4.44011 22.3417 4.4339 20.9272 4.4339 18.0325V13.7623H3.80242H3.17095V18.0817Z" fill="#00A095"/>
<path d="M5.95019 17.5692L5.9564 20.4967L6.00402 20.6504C6.32493 21.6898 7.42639 22.4524 8.86739 22.6287C9.09514 22.6554 10.4823 22.6595 21.2422 22.6595C29.6212 22.6595 33.4224 22.6533 33.5612 22.6369C34.35 22.5529 35.1078 22.2658 35.6274 21.8558C36.0808 21.5012 36.3645 21.0912 36.4991 20.5992L36.557 20.3942V17.5241V14.654H35.9256H35.2941L35.29 17.3909C35.2879 18.8956 35.2817 20.1748 35.2755 20.2343C35.2465 20.5418 34.8842 20.9169 34.4059 21.1322C34.1988 21.2244 33.9048 21.3146 33.6585 21.3597C33.4576 21.3966 33.0601 21.3987 21.2257 21.3987H8.9999L8.78251 21.3515C8.0413 21.1896 7.49057 20.8575 7.28767 20.4516L7.21935 20.3122L7.20899 17.4831L7.19864 14.654L6.57131 14.6479L5.94604 14.6438L5.95019 17.5692Z" fill="#00A095"/>
</svg>
